Coordinates
version=1
nRows=40
nColumns=38
inDegrees=no

Units are S.I. units (second, meters, Newtons, ...)
If the header above contains a line with 'inDegrees', this indicates whether rotational values are in degrees (yes) or radians (no).

endheader
time	pelvis_tilt	pelvis_list	pelvis_rotation	pelvis_tx	pelvis_ty	pelvis_tz	hip_flexion_r	hip_adduction_r	hip_rotation_r	knee_angle_r	ankle_angle_r	subtalar_angle_r	mtp_angle_r	hip_flexion_l	hip_adduction_l	hip_rotation_l	knee_angle_l	ankle_angle_l	subtalar_angle_l	mtp_angle_l	lumbar_extension	lumbar_bending	lumbar_rotation	arm_flex_r	arm_add_r	arm_rot_r	elbow_flex_r	pro_sup_r	wrist_flex_r	wrist_dev_r	arm_flex_l	arm_add_l	arm_rot_l	elbow_flex_l	pro_sup_l	wrist_flex_l	wrist_dev_l
0	-0.0764927	1.291	-1.43958	0.774342	1.8068	0.952905	-0.435805	0.0680593	-0.244708	0.0680207	-0.160996	0	0	0.117266	-0.177521	-0.403015	0.797499	-0.119903	0	0	-0.430432	0.00915263	-0.144231	0.0381859	-0.446869	0.899999	0.729954	0.622786	0	0	-0.376533	-0.34182	-0.0341266	1.06713	1.56491	0	0
0.01	-0.092408	1.29682	-1.42613	0.774842	1.7974	0.950829	-0.434304	0.0709575	-0.255106	0.0828491	-0.145802	0	0	0.128137	-0.18887	-0.45693	0.758184	-0.132761	0	0	-0.423061	0.0127171	-0.141797	0.0325803	-0.448062	0.886101	0.731095	0.634846	0	0	-0.369163	-0.328563	-0.0405827	1.04392	1.57053	0	0
0.02	-0.10515	1.29977	-1.41352	0.775331	1.78788	0.94898	-0.447192	0.0771341	-0.251602	0.0721266	-0.14003	0	0	0.133408	-0.194046	-0.494647	0.713414	-0.146374	0	0	-0.422616	0.01336	-0.135597	-0.00515372	-0.426755	0.76846	0.726703	0.752684	0	0	-0.370375	-0.327858	-0.0384897	1.04374	1.5708	0	0
0.03	-0.116137	1.30364	-1.40066	0.776048	1.77847	0.946967	-0.455822	0.0811046	-0.253174	0.0680788	-0.135009	0	0	0.14031	-0.191892	-0.513696	0.666606	-0.152591	0	0	-0.418711	0.0150681	-0.136358	-0.0114285	-0.422665	0.747861	0.72381	0.772539	0	0	-0.37367	-0.325861	-0.0388367	1.04056	1.5708	0	0
0.04	-0.126532	1.30812	-1.38747	0.776965	1.76906	0.944829	-0.463687	0.0846099	-0.255343	0.0647304	-0.129128	0	0	0.147342	-0.18654	-0.525526	0.61967	-0.154985	0	0	-0.414167	0.0167303	-0.13802	-0.0174026	-0.418665	0.728035	0.720679	0.792627	0	0	-0.376372	-0.324128	-0.0388115	1.03699	1.5708	0	0
0.05	-0.13852	1.31268	-1.37463	0.777922	1.75954	0.942635	-0.469886	0.0899961	-0.265672	0.0634349	-0.122399	0	0	0.15293	-0.179424	-0.531978	0.575887	-0.152752	0	0	-0.409289	0.0183753	-0.139421	-0.0232729	-0.414571	0.708468	0.717777	0.812917	0	0	-0.379255	-0.323034	-0.0384909	1.0333	1.5708	0	0
0.06	-0.142418	1.31698	-1.36491	0.779138	1.75011	0.940463	-0.47612	0.0921877	-0.268916	0.0661173	-0.115455	0	0	0.157738	-0.169555	-0.535597	0.531012	-0.143877	0	0	-0.402685	0.0195247	-0.147625	0.00200594	-0.431755	0.793712	0.715465	0.724524	0	0	-0.384145	-0.320479	-0.0411136	1.02716	1.5708	0	0
0.07	-0.145992	1.32198	-1.35854	0.780313	1.74056	0.938383	-0.480136	0.0925925	-0.274785	0.0699929	-0.10971	0	0	0.160718	-0.157554	-0.533206	0.488148	-0.132717	0	0	-0.397526	0.0191845	-0.150757	0.00529699	-0.432764	0.804356	0.71048	0.713391	0	0	-0.385978	-0.319797	-0.0404533	1.0209	1.5708	0	0
0.08	-0.171462	1.30798	-1.32069	0.782661	1.73012	0.939201	-0.523599	0.1088	-0.295509	0.0369605	-0.110292	0	0	0.143715	-0.156332	-0.529859	0.449375	-0.127536	0	0	-0.409686	0.0327658	-0.157189	0.00612917	-0.431527	0.805706	0.700802	0.710664	0	0	-0.382537	-0.317239	-0.0373067	1.0088	1.5708	0	0
0.09	-0.155142	1.31251	-1.33184	0.783693	1.72078	0.938054	-0.523599	0.104727	-0.310668	0.0497878	-0.0863665	0	0	0.129881	-0.120494	-0.457581	0.354693	-0.133888	0	0	-0.411225	0.0258939	-0.134196	-0.0907682	-0.346346	0.446466	0.683408	1.07799	0	0	-0.354718	-0.355749	0.0454798	0.999623	1.51861	0	0
0.1	-0.157592	1.3161	-1.33026	0.78441	1.71081	0.936485	-0.523599	0.102483	-0.31955	0.0657314	-0.0754809	0	0	0.128939	-0.112416	-0.448147	0.325729	-0.134779	0	0	-0.407001	0.023737	-0.130509	-0.0945138	-0.342598	0.434399	0.678491	1.08442	0	0	-0.352247	-0.361917	0.0600353	0.992707	1.50663	0	0
0.11	-0.162461	1.31867	-1.32788	0.78499	1.70062	0.93505	-0.523599	0.0998403	-0.328046	0.0841318	-0.0639519	0	0	0.129317	-0.110156	-0.445421	0.314467	-0.137853	0	0	-0.403446	0.0212987	-0.124624	-0.0991556	-0.338847	0.421772	0.674353	1.0902	0	0	-0.34993	-0.369533	0.075592	0.985765	1.49209	0	0
0.12	-0.16853	1.32068	-1.32513	0.785554	1.69031	0.933683	-0.523599	0.0957046	-0.335639	0.105247	-0.0512775	0	0	0.131691	-0.111662	-0.446511	0.320533	-0.142328	0	0	-0.399852	0.0188014	-0.117576	-0.104555	-0.334961	0.407772	0.670674	1.09468	0	0	-0.347616	-0.378253	0.092646	0.97999	1.47548	0	0
0.13	-0.17489	1.32338	-1.32243	0.786184	1.67975	0.932385	-0.523599	0.0904627	-0.342506	0.127565	-0.0357389	0	0	0.136092	-0.114622	-0.446147	0.33978	-0.146343	0	0	-0.394104	0.0161234	-0.10973	-0.110464	-0.330051	0.392267	0.664895	1.09754	0	0	-0.344581	-0.38769	0.112446	0.972863	1.45752	0	0
0.14	-0.181998	1.32976	-1.3192	0.786921	1.66866	0.931094	-0.523599	0.084494	-0.346721	0.148189	-0.0149263	0	0	0.142984	-0.115839	-0.439927	0.362822	-0.146618	0	0	-0.381922	0.0129808	-0.100982	-0.116992	-0.322729	0.3742	0.653489	1.09743	0	0	-0.340347	-0.396818	0.13514	0.960646	1.43769	0	0
0.15	-0.165664	1.31582	-1.34077	0.787981	1.65852	0.931136	-0.523599	0.0735207	-0.36481	0.179587	-0.0785899	0	0	0.127371	-0.119609	-0.454366	0.396025	-0.164782	0	0	-0.409273	0.0064468	-0.141329	-0.0436694	-0.375757	0.616183	0.658386	0.901584	0	0	-0.399339	-0.32702	-0.049435	0.987125	1.5708	0	0
0.16	-0.151972	1.31562	-1.3584	0.789084	1.64733	0.930836	-0.523599	0.0617745	-0.374297	0.206033	-0.0835015	0	0	0.121592	-0.114853	-0.451818	0.413756	-0.16951	0	0	-0.409337	-7.0427e-05	-0.138411	-0.0479507	-0.37324	0.608408	0.654968	0.905591	0	0	-0.401754	-0.327897	-0.0522589	0.982275	1.5708	0	0
0.17	-0.132918	1.31472	-1.3811	0.790339	1.63601	0.930902	-0.523599	0.0485509	-0.381791	0.233188	-0.0909976	0	0	0.113496	-0.107393	-0.451641	0.423814	-0.177481	0	0	-0.410107	-0.0077675	-0.135568	-0.0524997	-0.370444	0.600329	0.651026	0.909372	0	0	-0.403278	-0.329612	-0.0541383	0.976609	1.5708	0	0
0.18	-0.111032	1.31298	-1.40667	0.791679	1.62464	0.931361	-0.523599	0.0344891	-0.385078	0.261675	-0.100919	0	0	0.103862	-0.0993206	-0.455637	0.429413	-0.188711	0	0	-0.41161	-0.0159097	-0.132811	-0.0571639	-0.367727	0.592132	0.647476	0.913095	0	0	-0.404301	-0.331618	-0.056073	0.970337	1.5708	0	0
0.19	-0.089213	1.31114	-1.43165	0.793131	1.61322	0.932102	-0.523599	0.0203424	-0.384512	0.291977	-0.113113	0	0	0.0932787	-0.0920734	-0.46132	0.434036	-0.199893	0	0	-0.412619	-0.0236346	-0.130907	-0.0618702	-0.365188	0.583698	0.644308	0.916769	0	0	-0.405211	-0.333747	-0.0579547	0.963662	1.5708	0	0
0.2	-0.0706479	1.31139	-1.44991	0.795005	1.60146	0.932883	-0.523599	0.00791926	-0.384907	0.323538	-0.127339	0	0	0.0843662	-0.0856782	-0.46425	0.43924	-0.208519	0	0	-0.41038	-0.0293174	-0.131863	-0.0677431	-0.362793	0.574785	0.64098	0.92043	0	0	-0.406262	-0.335628	-0.05978	0.956255	1.5708	0	0
0.21	-0.058059	1.31309	-1.45909	0.797316	1.5894	0.933674	-0.523599	-0.00226353	-0.385187	0.356812	-0.142663	0	0	0.0765249	-0.0806281	-0.463726	0.444239	-0.215088	0	0	-0.405798	-0.032186	-0.135064	-0.074914	-0.361236	0.565969	0.638396	0.924625	0	0	-0.407734	-0.33712	-0.0618592	0.949235	1.5708	0	0
0.22	-0.0523169	1.3142	-1.46126	0.799816	1.5774	0.934603	-0.523599	-0.0113776	-0.38096	0.393924	-0.157239	0	0	0.0675174	-0.0776214	-0.461557	0.448234	-0.220372	0	0	-0.401782	-0.0326228	-0.138464	-0.0818562	-0.360998	0.557847	0.637179	0.929656	0	0	-0.409627	-0.338491	-0.0642538	0.943773	1.5708	0	0
0.23	-0.0525517	1.31414	-1.4564	0.802551	1.56554	0.935787	-0.523599	-0.0182282	-0.371058	0.429972	-0.168387	0	0	0.0570018	-0.0766356	-0.45809	0.451307	-0.22367	0	0	-0.399092	-0.0308857	-0.142173	-0.0880554	-0.361322	0.550427	0.635787	0.935143	0	0	-0.411516	-0.340818	-0.0665096	0.939935	1.5708	0	0
0.24	-0.0499826	1.31291	-1.45375	0.805355	1.55407	0.937193	-0.515659	-0.0288464	-0.365697	0.481283	-0.197885	0	0	0.044468	-0.0751802	-0.454888	0.452376	-0.225303	0	0	-0.395965	-0.0282341	-0.15158	-0.0702301	-0.388398	0.650397	0.64189	0.821187	0	0	-0.415184	-0.340587	-0.0708276	0.935338	1.5708	0	0
0.25	-0.0475477	1.31422	-1.45004	0.808409	1.54283	0.938684	-0.495027	-0.0405961	-0.358525	0.539465	-0.225456	0	0	0.0340907	-0.0725649	-0.450789	0.451328	-0.223598	0	0	-0.392305	-0.025849	-0.158402	-0.071118	-0.393598	0.659816	0.642425	0.806824	0	0	-0.415512	-0.34186	-0.0732295	0.932003	1.5708	0	0
0.26	-0.0546571	1.32424	-1.44199	0.811195	1.53259	0.939933	-0.482813	-0.0505733	-0.218439	0.557568	-0.251836	0	0	0.0333849	-0.0699684	-0.445191	0.448827	-0.221047	0	0	-0.381079	-0.0228237	-0.160884	-0.0668476	-0.396971	0.672056	0.635678	0.793571	0	0	-0.410058	-0.34035	-0.0756825	0.923262	1.5708	0	0
0.27	-0.0442742	1.32619	-1.44561	0.813991	1.52192	0.941493	-0.451234	-0.0624958	-0.22436	0.629374	-0.285217	0	0	0.0200692	-0.06352	-0.438129	0.440487	-0.218826	0	0	-0.377963	-0.022657	-0.170672	-0.0658268	-0.400463	0.679836	0.635972	0.783809	0	0	-0.410884	-0.341953	-0.0817967	0.924585	1.5708	0	0
0.28	-0.0200141	1.32358	-1.45965	0.816946	1.51103	0.943021	-0.407574	-0.0816689	-0.318306	0.730571	-0.334271	0	0	-0.000163965	-0.0546696	-0.4335	0.430732	-0.216195	0	0	-0.37949	-0.0248946	-0.185479	-0.0666746	-0.405489	0.686153	0.642411	0.775045	0	0	-0.41606	-0.345723	-0.0894349	0.933089	1.5708	0	0
0.29	-0.00540463	1.32578	-1.4683	0.819553	1.50097	0.944273	-0.371914	-0.0964621	-0.317839	0.795579	-0.375705	0	0	-0.0145441	-0.0475799	-0.429232	0.421117	-0.212784	0	0	-0.377337	-0.0260966	-0.196257	-0.0643619	-0.409908	0.693187	0.645721	0.768234	0	0	-0.417286	-0.34865	-0.0958577	0.938748	1.5708	0	0
0.3	0.00790977	1.32709	-1.47601	0.822027	1.49118	0.945427	-0.336411	-0.110314	-0.318359	0.858699	-0.405579	0	0	-0.0296858	-0.0417648	-0.426457	0.412467	-0.208925	0	0	-0.376675	-0.0269631	-0.206728	-0.0623339	-0.415152	0.698122	0.651453	0.764058	0	0	-0.417935	-0.352802	-0.100738	0.946362	1.5708	0	0
0.31	0.0308889	1.33544	-1.49533	0.823302	1.4811	0.945219	-0.313589	-0.100029	-0.302275	0.876111	-0.409988	0	0	-0.0357983	-0.0356337	-0.42651	0.409176	-0.202645	0	0	-0.366984	-0.0336386	-0.216022	-0.0636647	-0.418367	0.700737	0.658572	0.762576	0	0	-0.423148	-0.360601	-0.106358	0.959002	1.5708	0	0
0.32	0.0227267	1.33163	-1.48006	0.826607	1.47205	0.947394	-0.264167	-0.131856	-0.312787	0.977686	-0.44809	0	0	-0.0555876	-0.0340457	-0.419821	0.39656	-0.199721	0	0	-0.378955	-0.0266725	-0.211595	-0.12123	-0.364342	0.441912	0.657733	1.03871	0	0	-0.404325	-0.373922	-0.0834268	0.964204	1.5609	0	0
0.33	0.0219605	1.33106	-1.47524	0.82847	1.46301	0.948502	-0.228305	-0.139463	-0.307385	1.03994	-0.43297	0	0	-0.0701411	-0.0337429	-0.417524	0.390076	-0.195728	0	0	-0.379388	-0.0243576	-0.229733	-0.0862278	-0.400642	0.575382	0.665123	0.901625	0	0	-0.408916	-0.370628	-0.105582	0.972107	1.5708	0	0
0.34	0.0132269	1.32994	-1.46313	0.830067	1.4541	0.949847	-0.195718	-0.142643	-0.299489	1.0893	-0.403557	0	0	-0.0856384	-0.0355122	-0.412436	0.38171	-0.19315	0	0	-0.382785	-0.0206316	-0.236219	-0.0848489	-0.400635	0.562152	0.668322	0.919923	0	0	-0.40304	-0.378366	-0.103491	0.979011	1.5708	0	0
0.35	-0.00173034	1.32676	-1.44569	0.831564	1.44551	0.951478	-0.163911	-0.143829	-0.291486	1.13864	-0.369399	0	0	-0.103661	-0.0388468	-0.407172	0.371542	-0.191733	0	0	-0.3873	-0.0147764	-0.245013	-0.06395	-0.418202	0.622499	0.672841	0.861353	0	0	-0.397126	-0.38426	-0.103891	0.98348	1.5708	0	0
0.36	-0.0212347	1.32305	-1.4248	0.83292	1.43709	0.953218	-0.134135	-0.142612	-0.283194	1.17867	-0.334717	0	0	-0.122302	-0.043258	-0.403359	0.360775	-0.190388	0	0	-0.393358	-0.00784733	-0.250168	-0.0529275	-0.424638	0.636991	0.674901	0.852052	0	0	-0.387476	-0.391376	-0.100586	0.986789	1.5708	0	0
0.37	-0.0439079	1.31954	-1.40247	0.83409	1.42868	0.954938	-0.102902	-0.14	-0.274124	1.21588	-0.298435	0	0	-0.141094	-0.0480608	-0.401876	0.349509	-0.188245	0	0	-0.39866	-0.000392321	-0.252956	-0.0417777	-0.430838	0.650702	0.675845	0.842558	0	0	-0.375783	-0.398303	-0.0958725	0.988029	1.5708	0	0
0.38	-0.0694437	1.31722	-1.37626	0.835149	1.42013	0.95653	-0.0709139	-0.135699	-0.267616	1.2479	-0.267043	0	0	-0.158057	-0.0535292	-0.399323	0.33905	-0.185232	0	0	-0.401553	0.00769615	-0.255371	-0.0311633	-0.435976	0.664978	0.674433	0.834107	0	0	-0.362518	-0.406163	-0.0885084	0.987369	1.5708	0	0
0.39	-0.0958929	1.31628	-1.348	0.836175	1.41155	0.957936	-0.0384737	-0.130598	-0.263758	1.27389	-0.240956	0	0	-0.172496	-0.0597958	-0.39805	0.330369	-0.182275	0	0	-0.402336	0.0159931	-0.257898	-0.0207832	-0.440061	0.6794	0.670889	0.826481	0	0	-0.347637	-0.414549	-0.0792793	0.985184	1.5708	0	0
